<?xml version="1.0" encoding="UTF-8"?>
<svg version="1.1" xmlns="http://www.w3.org/2000/svg" width="64" height="64">
<path d="M0 0 C21.12 0 42.24 0 64 0 C64 21.12 64 42.24 64 64 C42.88 64 21.76 64 0 64 C0 42.88 0 21.76 0 0 Z " fill="#A75C5C" transform="translate(0,0)"/>
<path d="M0 0 C10.89 0 21.78 0 33 0 C33 21.12 33 42.24 33 64 C20.13 64 7.26 64 -6 64 C-6 48 -6 48 -4 46 C-3.01 46.33 -2.02 46.66 -1 47 C-0.67 46.34 -0.34 45.68 0 45 C-1.32 44.67 -2.64 44.34 -4 44 C-0.535 43.505 -0.535 43.505 3 43 C1.14375 42.6596875 1.14375 42.6596875 -0.75 42.3125 C-3.7482735 41.5377249 -5.00741373 40.99372685 -7.4375 38.9375 C-9.52511512 35.01278358 -9.80856534 31.39342546 -10 27 C-8.35 26.67 -6.7 26.34 -5 26 C-5 25.34 -5 24.68 -5 24 C-3.68 24.33 -2.36 24.66 -1 25 C-1.350625 24.21625 -1.70125 23.4325 -2.0625 22.625 C-2.371875 21.75875 -2.68125 20.8925 -3 20 C-2.67 19.34 -2.34 18.68 -2 18 C-1.01 18.33 -0.02 18.66 1 19 C2.1875 21.5625 2.1875 21.5625 3 24 C5.64 24.33 8.28 24.66 11 25 C11.52723535 36.15005139 11.52723535 36.15005139 8 41 C8 42.32 8 43.64 8 45 C7.67 45.33 7.34 45.66 7 46 C7.66 45.34 8.32 44.68 9 44 C9.33 43.34 9.66 42.68 10 42 C10.86625 42.226875 11.7325 42.45375 12.625 42.6875 C16.71495645 43.06619967 18.51537352 42.05909747 22 40 C22.66 39.67 23.32 39.34 24 39 C23.65555119 36.52733235 23.65555119 36.52733235 23 34 C22.01 33.505 22.01 33.505 21 33 C20.62109375 31.00390625 20.62109375 31.00390625 20.4375 28.5625 C20.1938825 25.15371795 20.1938825 25.15371795 19 22 C18.01 21.67 17.02 21.34 16 21 C15.79375 19.906875 15.5875 18.81375 15.375 17.6875 C14.40660557 13.99978794 14.40660557 13.99978794 12.05078125 12.68359375 C8.15154285 10.93699275 4.2579437 9.54941209 0 9 C0 6.03 0 3.06 0 0 Z " fill="#A66B69" transform="translate(31,0)"/>
<path d="M0 0 C1.8828125 1.0703125 1.8828125 1.0703125 3.8828125 3.0703125 C4.0078125 6.1953125 4.0078125 6.1953125 3.8828125 9.0703125 C5.2028125 9.4003125 6.5228125 9.7303125 7.8828125 10.0703125 C8.57570619 13.79461607 8.99425846 17.28114996 8.8828125 21.0703125 C10.2028125 21.7303125 11.5228125 22.3903125 12.8828125 23.0703125 C12.8828125 25.3203125 12.8828125 25.3203125 11.8828125 28.0703125 C8.20179639 30.8991602 5.02080537 32.1515977 0.3828125 31.8203125 C-0.4421875 31.5728125 -1.2671875 31.3253125 -2.1171875 31.0703125 C-1.6221875 31.5653125 -1.6221875 31.5653125 -1.1171875 32.0703125 C-2.1071875 32.5653125 -2.1071875 32.5653125 -3.1171875 33.0703125 C-3.4471875 33.7303125 -3.7771875 34.3903125 -4.1171875 35.0703125 C-5.7671875 35.0703125 -7.4171875 35.0703125 -9.1171875 35.0703125 C-8.4571875 34.4103125 -7.7971875 33.7503125 -7.1171875 33.0703125 C-6.1271875 33.0703125 -5.1371875 33.0703125 -4.1171875 33.0703125 C-4.3440625 32.3484375 -4.5709375 31.6265625 -4.8046875 30.8828125 C-5.1171875 28.0703125 -5.1171875 28.0703125 -3.7421875 25.8828125 C-1.38424072 21.80175077 -1.37850256 17.71090752 -1.1171875 13.0703125 C-4.0871875 13.0703125 -7.0571875 13.0703125 -10.1171875 13.0703125 C-10.4059375 12.1009375 -10.6946875 11.1315625 -10.9921875 10.1328125 C-11.75933432 6.96367047 -11.75933432 6.96367047 -14.1171875 6.0703125 C-13.7871875 8.3803125 -13.4571875 10.6903125 -13.1171875 13.0703125 C-14.4371875 12.7403125 -15.7571875 12.4103125 -17.1171875 12.0703125 C-17.1171875 12.7303125 -17.1171875 13.3903125 -17.1171875 14.0703125 C-16.1271875 14.7303125 -15.1371875 15.3903125 -14.1171875 16.0703125 C-19.8671875 16.1953125 -19.8671875 16.1953125 -22.1171875 15.0703125 C-21.71935871 16.84547279 -21.29815089 18.61540413 -20.8671875 20.3828125 C-20.63515625 21.36894531 -20.403125 22.35507812 -20.1640625 23.37109375 C-18.95467396 26.48933063 -18.02067768 27.47128892 -15.1171875 29.0703125 C-12.43634346 29.7111712 -9.87873073 29.8401839 -7.1171875 30.0703125 C-9.1171875 32.0703125 -9.1171875 32.0703125 -12.1171875 33.0703125 C-12.4471875 34.0603125 -12.7771875 35.0503125 -13.1171875 36.0703125 C-14.4371875 36.0703125 -15.7571875 36.0703125 -17.1171875 36.0703125 C-17.4471875 41.0203125 -17.7771875 45.9703125 -18.1171875 51.0703125 C-18.4471875 51.0703125 -18.7771875 51.0703125 -19.1171875 51.0703125 C-19.10558594 49.86632813 -19.09398437 48.66234375 -19.08203125 47.421875 C-19.07265316 45.84635571 -19.06355298 44.27083475 -19.0546875 42.6953125 C-19.04630859 41.90125 -19.03792969 41.1071875 -19.02929688 40.2890625 C-18.88678599 36.04639028 -18.88678599 36.04639028 -20.1171875 32.0703125 C-22.004375 31.6371875 -22.004375 31.6371875 -23.9296875 31.1953125 C-27.70374777 30.32124827 -29.84988349 29.37679752 -32.1171875 26.0703125 C-32.66875703 22.30125407 -32.28269866 21.31857924 -30.1171875 18.0703125 C-30.1171875 17.0803125 -30.1171875 16.0903125 -30.1171875 15.0703125 C-29.4571875 15.0703125 -28.7971875 15.0703125 -28.1171875 15.0703125 C-28.07980469 14.46703125 -28.04242187 13.86375 -28.00390625 13.2421875 C-27.32017165 4.93011977 -27.32017165 4.93011977 -24.1171875 2.0703125 C-22.46727168 1.36320572 -20.80156494 0.69087261 -19.1171875 0.0703125 C-18.7871875 -0.5896875 -18.4571875 -1.2496875 -18.1171875 -1.9296875 C-11.29186375 -4.20479542 -6.29467403 -2.96090939 0 0 Z " fill="#563027" transform="translate(43.1171875,11.9296875)"/>
<path d="M0 0 C0.99 0.33 1.98 0.66 3 1 C4.1875 3.5625 4.1875 3.5625 5 6 C7.64 6.33 10.28 6.66 13 7 C13.52723535 18.15005139 13.52723535 18.15005139 10 23 C10 24.32 10 25.64 10 27 C9.67 27.33 9.34 27.66 9 28 C9.66 28.33 10.32 28.66 11 29 C11 29.99 11 30.98 11 32 C11.33 32 11.66 32 12 32 C12.980503 36.90251498 13 40.80942241 13 46 C7.39 46 1.78 46 -4 46 C-4.04125 43.40125 -4.0825 40.8025 -4.125 38.125 C-4.14320801 37.30789551 -4.16141602 36.49079102 -4.18017578 35.64892578 C-4.19477217 33.76504951 -4.09943482 31.88130688 -4 30 C-3.34 29.34 -2.68 28.68 -2 28 C-1.01 28.33 -0.02 28.66 1 29 C1.33 28.34 1.66 27.68 2 27 C0.68 26.67 -0.64 26.34 -2 26 C1.465 25.505 1.465 25.505 5 25 C3.14375 24.6596875 3.14375 24.6596875 1.25 24.3125 C-1.7482735 23.5377249 -3.00741373 22.99372685 -5.4375 20.9375 C-7.52511512 17.01278358 -7.80856534 13.39342546 -8 9 C-6.35 8.67 -4.7 8.34 -3 8 C-3 7.34 -3 6.68 -3 6 C-1.68 6.33 -0.36 6.66 1 7 C0.649375 6.21625 0.29875 5.4325 -0.0625 4.625 C-0.371875 3.75875 -0.68125 2.8925 -1 2 C-0.67 1.34 -0.34 0.68 0 0 Z " fill="#AD8D8E" transform="translate(29,18)"/>
<path d="M0 0 C7.92 0 15.84 0 24 0 C24.92188461 2.76565382 25.11785222 4.38283702 25.09765625 7.23046875 C25.09515869 7.95387451 25.09266113 8.67728027 25.09008789 9.42260742 C25.08098389 10.33502197 25.07187988 11.24743652 25.0625 12.1875 C25.041875 15.095625 25.02125 18.00375 25 21 C16.75 21 8.5 21 0 21 C0 14.07 0 7.14 0 0 Z " fill="#706880" transform="translate(0,43)"/>
<path d="M0 0 C10.89 0 21.78 0 33 0 C33 3.96 33 7.92 33 12 C21.44789217 13.2694624 11.07777918 12.6067188 0 9 C0 6.03 0 3.06 0 0 Z " fill="#9C9BAD" transform="translate(31,0)"/>
<path d="M0 0 C5.28 0 10.56 0 16 0 C16 1.98 16 3.96 16 6 C15.01 6.66 14.02 7.32 13 8 C13 8.99 13 9.98 13 11 C12.7215625 11.9590625 12.7215625 11.9590625 12.4375 12.9375 C11.91231131 15.41338955 12.02103413 16.66554294 13 19 C14.32 19.99 15.64 20.98 17 22 C11.39 22 5.78 22 0 22 C0 14.74 0 7.48 0 0 Z " fill="#BC724B" transform="translate(0,21)"/>
<path d="M0 0 C5.96895809 1.49223952 11.0742824 4.65303167 15 9.4375 C16 12 16 12 17 19 C12.05 19 7.1 19 2 19 C1.34 15.04 0.68 11.08 0 7 C-0.99 7.495 -0.99 7.495 -2 8 C-1.34 5.36 -0.68 2.72 0 0 Z " fill="#985658" transform="translate(40,45)"/>
<path d="M0 0 C0.66 0.33 1.32 0.66 2 1 C2 6.94 2 12.88 2 19 C-4.6 19 -11.2 19 -18 19 C-17.67 15.7 -17.34 12.4 -17 9 C-15.68 8.67 -14.36 8.34 -13 8 C-13 8.66 -13 9.32 -13 10 C-11.68 10.33 -10.36 10.66 -9 11 C-8.67 10.01 -8.34 9.02 -8 8 C-7.34 8.66 -6.68 9.32 -6 10 C-5.67 9.34 -5.34 8.68 -5 8 C-4.01 8 -3.02 8 -2 8 C-2 7.01 -2 6.02 -2 5 C-3.65 5 -5.3 5 -7 5 C-4.88437775 2.67281553 -2.94982021 1.14186589 0 0 Z " fill="#A15E5E" transform="translate(23,45)"/>
<path d="M0 0 C6.6 0 13.2 0 20 0 C20 4.29 20 8.58 20 13 C10.8203125 13.29296875 10.8203125 13.29296875 8 13 C7.34 12.01 6.68 11.02 6 10 C5.01 9.67 4.02 9.34 3 9 C1.875 5.5625 1.875 5.5625 1 2 C0.67 1.34 0.34 0.68 0 0 Z " fill="#A66D6A" transform="translate(44,12)"/>
<path d="M0 0 C1 2 1 2 1 3 C1.33 3 1.66 3 2 3 C2.980503 7.90251498 3 11.80942241 3 17 C-2.61 17 -8.22 17 -14 17 C-14 11.72 -14 6.44 -14 1 C-10.535 2.98 -10.535 2.98 -7 5 C-7.66 6.65 -8.32 8.3 -9 10 C-8.34 10.66 -7.68 11.32 -7 12 C-6.67 11.01 -6.34 10.02 -6 9 C-5.34 9.33 -4.68 9.66 -4 10 C-4.268125 9.278125 -4.53625 8.55625 -4.8125 7.8125 C-5 5 -5 5 -2.5625 2.1875 C-1.716875 1.465625 -0.87125 0.74375 0 0 Z " fill="#B8B7CA" transform="translate(39,47)"/>
<path d="M0 0 C0.3403125 0.8353125 0.3403125 0.8353125 0.6875 1.6875 C2.4534855 4.79899826 4.20041307 6.74815834 7 9 C9.73284495 9.69968943 12.15797216 9.85549011 15 10 C13 12 13 12 10 13 C9.67 13.99 9.34 14.98 9 16 C7.68 16 6.36 16 5 16 C4.67 20.95 4.34 25.9 4 31 C3.67 31 3.34 31 3 31 C3.01160156 29.79601562 3.02320313 28.59203125 3.03515625 27.3515625 C3.04453434 25.77604321 3.05363452 24.20052225 3.0625 22.625 C3.07087891 21.8309375 3.07925781 21.036875 3.08789062 20.21875 C3.23040151 15.97607778 3.23040151 15.97607778 2 12 C0.1128125 11.566875 0.1128125 11.566875 -1.8125 11.125 C-5.58656027 10.25093577 -7.73269599 9.30648502 -10 6 C-10.25 3.25 -10.25 3.25 -10 1 C-8.68 1.33 -7.36 1.66 -6 2 C-6 2.66 -6 3.32 -6 4 C-3.83333333 3.16666667 -3.83333333 3.16666667 -3 1 C-2.01 0.67 -1.02 0.34 0 0 Z " fill="#482A2A" transform="translate(21,32)"/>
<path d="M0 0 C1.2065625 0.0309375 1.2065625 0.0309375 2.4375 0.0625 C2.7675 0.7225 3.0975 1.3825 3.4375 2.0625 C5.7515622 2.79325648 8.08578869 3.46388258 10.4375 4.0625 C9.1175 5.3825 7.7975 6.7025 6.4375 8.0625 C5.1175 7.4025 3.7975 6.7425 2.4375 6.0625 C2.4375 7.0525 2.4375 8.0425 2.4375 9.0625 C3.0975 9.0625 3.7575 9.0625 4.4375 9.0625 C3.4475 12.6925 2.4575 16.3225 1.4375 20.0625 C-0.2125 20.0625 -1.8625 20.0625 -3.5625 20.0625 C-3.59138514 16.91668577 -3.60925923 13.77090531 -3.625 10.625 C-3.63337891 9.72716797 -3.64175781 8.82933594 -3.65039062 7.90429688 C-3.65361328 7.05029297 -3.65683594 6.19628906 -3.66015625 5.31640625 C-3.66801147 4.13026733 -3.66801147 4.13026733 -3.67602539 2.92016602 C-3.49546255 -0.03446337 -2.96954506 0.07242793 0 0 Z " fill="#4D5FAB" transform="translate(3.5625,43.9375)"/>
<path d="M0 0 C3.96 0 7.92 0 12 0 C12 4.29 12 8.58 12 13 C7.64770828 13.42669527 5.67113339 13.51064497 2.125 10.8125 C-0.01300842 7.98278297 -0.8157645 6.50047444 -1 3 C-0.67 2.01 -0.34 1.02 0 0 Z " fill="#B7B5C6" transform="translate(52,25)"/>
<path d="M0 0 C1.65 0.99 3.3 1.98 5 3 C5.391875 2.484375 5.78375 1.96875 6.1875 1.4375 C6.785625 0.963125 7.38375 0.48875 8 0 C10.6875 0.3125 10.6875 0.3125 13 1 C13.33 2.65 13.66 4.3 14 6 C10.37646227 8.6123179 7.51625537 10.64345352 3 11 C0.6875 10.5625 0.6875 10.5625 -1 10 C-0.67 10.33 -0.34 10.66 0 11 C-0.99 11.495 -0.99 11.495 -2 12 C-2.33 12.66 -2.66 13.32 -3 14 C-4.65 14 -6.3 14 -8 14 C-7.34 13.34 -6.68 12.68 -6 12 C-5.01 12 -4.02 12 -3 12 C-3.37125 10.9790625 -3.37125 10.9790625 -3.75 9.9375 C-4.1173664 5.6209448 -2.32651284 3.59551985 0 0 Z " fill="#542F25" transform="translate(42,33)"/>
<path d="M0 0 C2.27650545 1.53026508 3.01931157 2.6751222 3.8828125 5.265625 C3.0078125 8.515625 3.0078125 8.515625 1.8828125 11.265625 C0.8928125 10.935625 -0.0971875 10.605625 -1.1171875 10.265625 C-1.4471875 8.615625 -1.7771875 6.965625 -2.1171875 5.265625 C-1.4571875 5.265625 -0.7971875 5.265625 -0.1171875 5.265625 C-1.1071875 4.605625 -2.0971875 3.945625 -3.1171875 3.265625 C-3.1171875 3.925625 -3.1171875 4.585625 -3.1171875 5.265625 C-6.0871875 4.770625 -6.0871875 4.770625 -9.1171875 4.265625 C-9.4471875 5.255625 -9.7771875 6.245625 -10.1171875 7.265625 C-10.519375 5.8115625 -10.519375 5.8115625 -10.9296875 4.328125 C-11.3215625 3.3175 -11.7134375 2.306875 -12.1171875 1.265625 C-13.1071875 0.935625 -14.0971875 0.605625 -15.1171875 0.265625 C-15.1171875 1.585625 -15.1171875 2.905625 -15.1171875 4.265625 C-16.1071875 3.935625 -17.0971875 3.605625 -18.1171875 3.265625 C-18.4471875 2.275625 -18.7771875 1.285625 -19.1171875 0.265625 C-15.80385495 -6.36104011 -5.06917837 -2.22549294 0 0 Z " fill="#5D332A" transform="translate(43.1171875,11.734375)"/>
<path d="M0 0 C0 4.29 0 8.58 0 13 C-2.31 13 -4.62 13 -7 13 C-7.41572266 11.84371094 -7.41572266 11.84371094 -7.83984375 10.6640625 C-8.20207031 9.66117188 -8.56429687 8.65828125 -8.9375 7.625 C-9.29714844 6.62726562 -9.65679687 5.62953125 -10.02734375 4.6015625 C-10.92349292 2.06495835 -10.92349292 2.06495835 -12 0 C-7.41466617 -0.80917656 -4.66958927 -0.93391785 0 0 Z " fill="#9C9BAD" transform="translate(64,51)"/>
<path d="M0 0 C0.99 0 1.98 0 3 0 C3 1.32 3 2.64 3 4 C2.67 4.33 2.34 4.66 2 5 C2.33 5.66 2.66 6.32 3 7 C1.625 9 1.625 9 0 11 C-0.66 11 -1.32 11 -2 11 C-1.67 12.65 -1.34 14.3 -1 16 C-1.66 16 -2.32 16 -3 16 C-3.33 17.65 -3.66 19.3 -4 21 C-4.12375 20.360625 -4.2475 19.72125 -4.375 19.0625 C-4.58125 18.381875 -4.7875 17.70125 -5 17 C-5.66 16.67 -6.32 16.34 -7 16 C-6.34 14.68 -5.68 13.36 -5 12 C-6.65 10.68 -8.3 9.36 -10 8 C-9.67 7.01 -9.34 6.02 -9 5 C-8.01 5.33 -7.02 5.66 -6 6 C-5.67 5.34 -5.34 4.68 -5 4 C-6.32 3.67 -7.64 3.34 -9 3 C-4.545 2.505 -4.545 2.505 0 2 C0 1.34 0 0.68 0 0 Z " fill="#A28486" transform="translate(36,41)"/>
<path d="M0 0 C2.10633718 1.70828921 2.93801608 2.52148416 3.29296875 5.26171875 C3.25816406 6.06222656 3.22335938 6.86273438 3.1875 7.6875 C3.16042969 8.49574219 3.13335937 9.30398437 3.10546875 10.13671875 C3.07066406 10.75160156 3.03585938 11.36648437 3 12 C2.34 12 1.68 12 1 12 C0.34 13.32 -0.32 14.64 -1 16 C-1.78375 15.484375 -2.5675 14.96875 -3.375 14.4375 C-4.24125 13.963125 -5.1075 13.48875 -6 13 C-6.99 13.495 -6.99 13.495 -8 14 C-7.67 10.7 -7.34 7.4 -7 4 C-6.34 4.66 -5.68 5.32 -5 6 C-4.54625 5.195625 -4.0925 4.39125 -3.625 3.5625 C-2 1 -2 1 0 0 Z " fill="#643932" transform="translate(49,21)"/>
<path d="M0 0 C1.52519276 0.08937803 3.04681929 0.24537146 4.5625 0.4375 C5.38878906 0.53933594 6.21507812 0.64117187 7.06640625 0.74609375 C7.70449219 0.82988281 8.34257812 0.91367187 9 1 C9 1.99 9 2.98 9 4 C8.01 4.33 7.02 4.66 6 5 C6.33 5.66 6.66 6.32 7 7 C6.360625 6.814375 5.72125 6.62875 5.0625 6.4375 C4.0415625 6.2209375 4.0415625 6.2209375 3 6 C2.67 6.33 2.34 6.66 2 7 C0.33382885 7.04063832 -1.33388095 7.042721 -3 7 C-3.33 6.34 -3.66 5.68 -4 5 C-4.66 4.67 -5.32 4.34 -6 4 C-6 3.01 -6 2.02 -6 1 C-4.7934375 1.0309375 -4.7934375 1.0309375 -3.5625 1.0625 C-1.06645115 1.29633621 -1.06645115 1.29633621 0 0 Z " fill="#A98C8E" transform="translate(12,49)"/>
<path d="M0 0 C1.65 0.99 3.3 1.98 5 3 C4.67 4.98 4.34 6.96 4 9 C2.02 9.66 0.04 10.32 -2 11 C-1.34 11.33 -0.68 11.66 0 12 C-0.66 12 -1.32 12 -2 12 C-2.33 12.66 -2.66 13.32 -3 14 C-4.65 14 -6.3 14 -8 14 C-7.34 13.34 -6.68 12.68 -6 12 C-5.01 12 -4.02 12 -3 12 C-3.37125 10.9790625 -3.37125 10.9790625 -3.75 9.9375 C-4.1173664 5.6209448 -2.32651284 3.59551985 0 0 Z " fill="#4A2B2B" transform="translate(42,33)"/>
<path d="M0 0 C0.66 0 1.32 0 2 0 C2.33 1.98 2.66 3.96 3 6 C4.65 5.01 6.3 4.02 8 3 C8 3.66 8 4.32 8 5 C8.99 5 9.98 5 11 5 C11 5.66 11 6.32 11 7 C9.68 6.67 8.36 6.34 7 6 C7 6.66 7 7.32 7 8 C7.99 8.66 8.98 9.32 10 10 C6.7 9.67 3.4 9.34 0 9 C-0.66 10.32 -1.32 11.64 -2 13 C-3.45047396 10.09905209 -2.45356803 8.44027404 -1.5625 5.375 C-1.27503906 4.37210938 -0.98757812 3.36921875 -0.69140625 2.3359375 C-0.46324219 1.56507812 -0.23507813 0.79421875 0 0 Z " fill="#4A2820" transform="translate(19,18)"/>
<path d="M0 0 C4.85714286 1.21428571 4.85714286 1.21428571 7 4 C7 4.99 7 5.98 7 7 C6.01 7.495 6.01 7.495 5 8 C5 8.66 5 9.32 5 10 C3.68 10.33 2.36 10.66 1 11 C0.67 9.68 0.34 8.36 0 7 C-0.99 7.495 -0.99 7.495 -2 8 C-1.34 5.36 -0.68 2.72 0 0 Z " fill="#79484D" transform="translate(40,45)"/>
<path d="M0 0 C2.58749724 0.34966179 4.63958564 0.80235341 6.9375 2.0625 C8.30334432 4.55315729 7.85787175 5.47728279 7.1875 8.1875 C6.795625 9.445625 6.40375 10.70375 6 12 C5.01 11.67 4.02 11.34 3 11 C2.67 9.35 2.34 7.7 2 6 C2.66 6 3.32 6 4 6 C3.34 5.67 2.68 5.34 2 5 C1.27840576 3.35636866 0.60648579 1.68949614 0 0 Z " fill="#6B3632" transform="translate(39,11)"/>
<path d="M0 0 C0.66 0.33 1.32 0.66 2 1 C1.125 5.75 1.125 5.75 0 8 C-0.33 8.99 -0.66 9.98 -1 11 C-1.66 10.67 -2.32 10.34 -3 10 C-2.67 8.35 -2.34 6.7 -2 5 C-3.65 5 -5.3 5 -7 5 C-4.88437775 2.67281553 -2.94982021 1.14186589 0 0 Z " fill="#8C5154" transform="translate(23,45)"/>
<path d="M0 0 C1.32 0.33 2.64 0.66 4 1 C3.95875 1.763125 3.9175 2.52625 3.875 3.3125 C3.77919176 6.22718416 3.77919176 6.22718416 6 9 C3.525 8.01 3.525 8.01 1 7 C0.67 4.69 0.34 2.38 0 0 Z M4 3 C5.98 3 7.96 3 10 3 C9.34 4.32 8.68 5.64 8 7 C7.67 6.34 7.34 5.68 7 5 C6.01 5.495 6.01 5.495 5 6 C4.67 5.01 4.34 4.02 4 3 Z " fill="#522E22" transform="translate(11,33)"/>
<path d="M0 0 C1 2 1 2 0.1875 5.5 C-1 9 -1 9 -3 11 C-4.32 11 -5.64 11 -7 11 C-6.67 10.34 -6.34 9.68 -6 9 C-5.34 9.33 -4.68 9.66 -4 10 C-4.268125 9.278125 -4.53625 8.55625 -4.8125 7.8125 C-5 5 -5 5 -2.5625 2.1875 C-1.716875 1.465625 -0.87125 0.74375 0 0 Z " fill="#B0A9B6" transform="translate(39,47)"/>
<path d="M0 0 C1.5625 1.125 1.5625 1.125 3 3 C2.6875 6.1875 2.6875 6.1875 2 9 C0 8 0 8 -1 5 C-1.66 5.99 -2.32 6.98 -3 8 C-4 5 -4 5 -3.1875 2.875 C-2 1 -2 1 0 0 Z " fill="#5C3326" transform="translate(49,21)"/>
<path d="M0 0 C3.465 1.98 3.465 1.98 7 4 C6.34 5.65 5.68 7.3 5 9 C4.01 8.67 3.02 8.34 2 8 C0.5522078 5.10441559 0 3.25811062 0 0 Z " fill="#B0A7B5" transform="translate(25,48)"/>
<path d="M0 0 C0.33 0.66 0.66 1.32 1 2 C1.99 2 2.98 2 4 2 C4 2.66 4 3.32 4 4 C2.68 3.67 1.36 3.34 0 3 C0 3.66 0 4.32 0 5 C0.99 5.66 1.98 6.32 3 7 C0.125 7.125 0.125 7.125 -3 7 C-3.66 6.34 -4.32 5.68 -5 5 C-5 4.34 -5 3.68 -5 3 C-2.5 1.375 -2.5 1.375 0 0 Z " fill="#532E2A" transform="translate(26,21)"/>
<path d="M0 0 C-0.33 0.99 -0.66 1.98 -1 3 C-3.25 3.6875 -3.25 3.6875 -6 4 C-8.3125 2.5625 -8.3125 2.5625 -10 1 C-6.52674819 -0.1577506 -3.63932552 -0.06866652 0 0 Z " fill="#4B5FAF" transform="translate(22,44)"/>
<path d="M0 0 C1.5 1.375 1.5 1.375 3 3 C3 3.66 3 4.32 3 5 C2.34 5 1.68 5 1 5 C0.67 6.65 0.34 8.3 0 10 C-0.12375 9.360625 -0.2475 8.72125 -0.375 8.0625 C-0.684375 7.0415625 -0.684375 7.0415625 -1 6 C-1.66 5.67 -2.32 5.34 -3 5 C-2.01 3.35 -1.02 1.7 0 0 Z " fill="#605765" transform="translate(32,52)"/>
<path d="M0 0 C3.63 0.33 7.26 0.66 11 1 C9 3 9 3 5.5 3.1875 C2 3 2 3 0 2 C0 1.34 0 0.68 0 0 Z " fill="#392639" transform="translate(25,41)"/>
<path d="M0 0 C0.66 0 1.32 0 2 0 C2.33 1.65 2.66 3.3 3 5 C1.02 5.99 1.02 5.99 -1 7 C-2 4 -2 4 -1.0625 1.8125 C-0.5365625 0.9153125 -0.5365625 0.9153125 0 0 Z " fill="#6A3C33" transform="translate(19,27)"/>
<path d="M0 0 C0.99 0.99 1.98 1.98 3 3 C2.67 3.66 2.34 4.32 2 5 C2.66 5.33 3.32 5.66 4 6 C2.68 6.33 1.36 6.66 0 7 C-0.38133299 5.0085944 -0.71325582 3.00720923 -1 1 C-0.67 0.67 -0.34 0.34 0 0 Z " fill="#5D332D" transform="translate(23,38)"/>
<path d="M0 0 C0.99 1.32 1.98 2.64 3 4 C2.03114628 5.68496298 1.03013277 7.35178756 0 9 C-0.33 9 -0.66 9 -1 9 C-0.95875 8.05125 -0.9175 7.1025 -0.875 6.125 C-0.65026182 2.89755144 -0.65026182 2.89755144 -3 1 C-2.01 0.67 -1.02 0.34 0 0 Z " fill="#663A2B" transform="translate(15,31)"/>
<path d="M0 0 C0.625 1.8125 0.625 1.8125 1 4 C0.01 5.485 0.01 5.485 -1 7 C-1.99 6.67 -2.98 6.34 -4 6 C-3.67 5.01 -3.34 4.02 -3 3 C-2.34 3 -1.68 3 -1 3 C-0.67 2.01 -0.34 1.02 0 0 Z " fill="#44251D" transform="translate(46,36)"/>
<path d="M0 0 C0.99 0.66 1.98 1.32 3 2 C3 2.66 3 3.32 3 4 C2.34 4 1.68 4 1 4 C0.67 4.99 0.34 5.98 0 7 C-0.66 5.02 -1.32 3.04 -2 1 C-1.34 0.67 -0.68 0.34 0 0 Z " fill="#62362D" transform="translate(33,12)"/>
</svg>
